<?xml version="1.0" encoding="UTF-8"?>
<svg width="24" height="24" viewBox="0 0 24 24" fill="none" xmlns="http://www.w3.org/2000/svg">
  <path d="M4.8 3C4.8 2.33726 5.33726 1.8 6 1.8H8C8.66274 1.8 9.2 2.33726 9.2 3V5C9.2 5.66274 8.66274 6.2 8 6.2H6C5.33726 6.2 4.8 5.66274 4.8 5V3Z" stroke="#10B981" stroke-width="1.6"/>
  <path d="M9 3H15" stroke="#10B981" stroke-width="1.6" stroke-linecap="round"/>
  <path d="M7 6V11C7 15.4183 10.5817 19 15 19C19.4183 19 23 15.4183 23 11" stroke="#10B981" stroke-width="1.6" stroke-linecap="round"/>
  <path d="M22 10C22 11.1046 21.1046 12 20 12C18.8954 12 18 11.1046 18 10C18 8.89543 18.8954 8 20 8C21.1046 8 22 8.89543 22 10Z" stroke="#10B981" stroke-width="1.6"/>
</svg>
